<?xml version="1.0" encoding="UTF-8"?>
<!DOCTYPE svg PUBLIC "-//W3C//DTD SVG 1.1//EN" "http://www.w3.org/Graphics/SVG/1.1/DTD/svg11.dtd">
<svg version="1.1" xmlns="http://www.w3.org/2000/svg" viewBox="0 0 512 512" xmlns:xlink="http://www.w3.org/1999/xlink" enable-background="new 0 0 512 512">
  <g>
    <g>
      <g>
		<path style="fill:#000000;" d="M475.4,10.8h-98.5c-11.3,0-20.4,9.1-20.4,20.4v280.8H36.9c-11.3,0-20.4,9.1-20.4,20.4c0,11.3,9.1,20.4,20.4,20.4h339.9     c11.3,0,20.4-9.1,20.4-20.4V51.7h78.1c11.3,0,20.4-9.1,20.4-20.4C495.8,20,486.6,10.8,475.4,10.8z"/>
        <path style="fill:#000000;" d="m129.1,363.4c-38.1,0-69.1,30.8-69.1,68.7s31,68.7 69.1,68.7c38.1,0 69.1-30.8 69.1-68.7s-31-68.7-69.1-68.7zm0,96.6c-15.6,0-28.3-12.5-28.3-27.9 0-15.4 12.7-27.9 28.3-27.9 15.6,0 28.3,12.5 28.3,27.9 0,15.4-12.7,27.9-28.3,27.9z"/>
        <path style="fill:#000000;" d="m306.1,363.4c-38.1,0-69.1,30.8-69.1,68.7s31,68.7 69.1,68.7c38.1,0 69.1-30.8 69.1-68.7s-31-68.7-69.1-68.7zm0,96.6c-15.6,0-28.3-12.5-28.3-27.9 0-15.4 12.7-27.9 28.3-27.9 15.6,0 28.3,12.5 28.3,27.9-5.68434e-14,15.4-12.7,27.9-28.3,27.9z"/>
      </g>
    </g>
  </g>
</svg>