<?xml version="1.0" encoding="iso-8859-1"?>
<!-- Generator: Adobe Illustrator 19.0.0, SVG Export Plug-In . SVG Version: 6.00 Build 0)  -->
<svg version="1.1" id="Layer_1" xmlns="http://www.w3.org/2000/svg" xmlns:xlink="http://www.w3.org/1999/xlink" x="0px" y="0px" viewBox="0 0 511.999 511.999" style="enable-background:new 0 0 511.999 511.999;" xml:space="preserve">
<g>
	<g>
		<path d="M404.983,28.465V0h-30.417v28.465h-23.092V0h-30.417v28.465h-23.092V0h-30.417v28.465h-23.092V0h-30.417v28.465h-23.092V0    H160.53v28.465h-23.092V0h-30.417v28.465H53.508v483.534h404.983V28.465H404.983z M83.925,481.583v-422.7h23.093v28.466h30.417    V58.883h23.092v28.466h30.417V58.883h23.092v28.466h30.417V58.883h23.092v28.466h30.417V58.883h23.092v28.466h30.417V58.883    h23.092v28.466h30.417V58.883h23.091v422.7H83.925z"/>
	</g>
</g>
<g>
	<g>
		<rect x="122.227" y="153.637" width="267.55" height="30.417"/>
	</g>
</g>
<g>
	<g>
		<rect x="122.227" y="204.333" width="267.55" height="30.417"/>
	</g>
</g>
<g>
	<g>
		<rect x="122.227" y="255.028" width="267.55" height="30.417"/>
	</g>
</g>
<g>
	<g>
		<rect x="122.227" y="305.724" width="267.55" height="30.417"/>
	</g>
</g>
<g>
	<g>
		<rect x="122.227" y="356.419" width="267.55" height="30.417"/>
	</g>
</g>
<g>
</g>
<g>
</g>
<g>
</g>
<g>
</g>
<g>
</g>
<g>
</g>
<g>
</g>
<g>
</g>
<g>
</g>
<g>
</g>
<g>
</g>
<g>
</g>
<g>
</g>
<g>
</g>
<g>
</g>
</svg>