<?xml version="1.0" encoding="utf-8"?>
<!-- Generator: Adobe Illustrator 19.2.1, SVG Export Plug-In . SVG Version: 6.00 Build 0)  -->
<svg version="1.1" id="Capa_1" xmlns="http://www.w3.org/2000/svg" xmlns:xlink="http://www.w3.org/1999/xlink" x="0px" y="0px"
	 viewBox="20 0 188 224" style="enable-background:new 0 0 200 224;" xml:space="preserve">
<g>
	<path d="M-70.9,59.5h-48.4c-2.7,0-5.2,1.4-6.5,3.8l-24.2,41.9c-1.3,2.3-1.3,5.2,0,7.5l24.2,41.9c1.3,2.3,3.8,3.7,6.5,3.7h48.4
		c2.7,0,5.2-1.4,6.5-3.7l24.2-41.9c1.3-2.3,1.3-5.2,0-7.5l-24.2-41.9C-65.7,60.9-68.2,59.5-70.9,59.5z"/>
	<path d="M29.5,119.8h-48.4c-2.7,0-5.2,1.4-6.5,3.8l-24.1,41.8c-1.3,2.3-1.3,5.2,0,7.5l24.2,41.9c1.3,2.3,3.8,3.8,6.5,3.8h48.3
		c2.7,0,5.2-1.4,6.5-3.8l24.2-41.9c1.3-2.3,1.3-5.2,0-7.5L36,123.6C34.7,121.2,32.2,119.8,29.5,119.8z"/>
	<path d="M31,232c-1.3-2.3-3.8-3.8-6.5-3.8h-48.4c-2.7,0-5.2,1.4-6.5,3.8l-24.1,41.8c-1.3,2.3-1.3,5.2,0,7.5l24.2,41.9
		c1.3,2.3,3.8,3.8,6.5,3.8h48.3c2.7,0,5.2-1.4,6.5-3.8l24.2-41.9c1.3-2.3,1.3-5.2,0-7.5L31,232z"/>
	<path d="M-44.8,218.8L-69,176.9c-1.3-2.3-3.8-3.8-6.5-3.8h-48.4c-2.7,0-5.2,1.4-6.5,3.8l-24.1,41.9c-1.3,2.3-1.3,5.2,0,7.5
		l24.2,41.9c1.3,2.3,3.8,3.8,6.5,3.8h48.3c2.7,0,5.2-1.4,6.5-3.8l24.2-41.9C-43.4,224-43.4,221.2-44.8,218.8z"/>
	<path d="M24.5,5.6h-48.4c-2.7,0-5.2,1.4-6.5,3.8l-24.1,41.8c-1.3,2.3-1.3,5.2,0,7.5l24.2,41.9c1.3,2.3,3.8,3.8,6.5,3.8h48.3
		c2.7,0,5.2-1.4,6.5-3.8l24.2-41.9c1.3-2.3,1.3-5.2,0-7.5L31,9.4C29.7,7.1,27.2,5.6,24.5,5.6z"/>
	<path d="M73.7,160.7h48.4c2.7,0,5.2-1.4,6.5-3.8l24.2-41.9c1.3-2.3,1.3-5.2,0-7.5l-24.3-41.8c-1.3-2.3-3.8-3.7-6.5-3.7H73.7
		c-2.7,0-5.2,1.4-6.5,3.7L43,107.6c-1.3,2.3-1.3,5.2,0,7.5L67.2,157C68.5,159.3,71,160.7,73.7,160.7z"/>
	<path d="M223.9,123.6c-1.3-2.3-3.8-3.8-6.5-3.8H169c-2.7,0-5.2,1.4-6.5,3.8l-24.2,41.9c-1.3,2.3-1.3,5.2,0,7.5l24.2,41.9
		c1.3,2.3,3.8,3.8,6.5,3.8h48.4c2.7,0,5.2-1.4,6.5-3.8l24.2-41.9c1.3-2.3,1.3-5.2,0-7.5L223.9,123.6z"/>
	<path d="M223.9,236.1c-1.3-2.3-3.8-3.8-6.5-3.8H169c-2.7,0-5.2,1.4-6.5,3.8L138.3,278c-1.3,2.3-1.3,5.2,0,7.5l24.2,41.9
		c1.3,2.3,3.8,3.8,6.5,3.8h48.4c2.7,0,5.2-1.4,6.5-3.8l24.2-41.9c1.3-2.3,1.3-5.2,0-7.5L223.9,236.1z"/>
	<path d="M152.7,218.8L128.5,177c-1.3-2.3-3.8-3.8-6.5-3.8H73.7c-2.7,0-5.2,1.4-6.5,3.8L43,218.8c-1.3,2.3-1.3,5.2,0,7.5l24.2,41.9
		c1.3,2.3,3.8,3.8,6.5,3.8h48.4c2.7,0,5.2-1.4,6.5-3.8l24.2-41.9C154,224,154,221.2,152.7,218.8z"/>
	<path d="M152.7-3.3l-24.2-41.8c-1.3-2.3-3.8-3.8-6.5-3.8H73.7c-2.7,0-5.2,1.4-6.5,3.8L43-3.3c-1.3,2.3-1.3,5.2,0,7.5l24.2,41.9
		c1.3,2.3,3.8,3.8,6.5,3.8h48.4c2.7,0,5.2-1.4,6.5-3.8l24.2-41.9C154,1.9,154-1,152.7-3.3z"/>
	<path d="M223.9,9.4c-1.3-2.3-3.8-3.8-6.5-3.8H169c-2.7,0-5.2,1.4-6.5,3.8l-24.2,41.9c-1.3,2.3-1.3,5.2,0,7.5l24.2,41.9
		c1.3,2.3,3.8,3.8,6.5,3.8h48.4c2.7,0,5.2-1.4,6.5-3.8l24.2-41.9c1.3-2.3,1.3-5.2,0-7.5L223.9,9.4z"/>
</g>
</svg>
