<?xml version="1.0" encoding="windows-1252"?>
<svg version="1.1" id="Layer_1" xmlns="http://www.w3.org/2000/svg" xmlns:xlink="http://www.w3.org/1999/xlink" x="0px" y="0px" viewBox="0 -30 495 495" style="enable-background:new 0 0 495 495;" xml:space="preserve">
<g>
	<path style="fill:#FFE477;" d="M155,215.165c17.31,0,33.523-4.653,47.5-12.741c-28.387-16.428-47.5-47.102-47.5-82.259   s19.113-65.831,47.5-82.259c-13.977-8.088-30.19-12.741-47.5-12.741c-52.467,0-95,42.533-95,95S102.533,215.165,155,215.165z"/>
	<polygon style="fill:#C0AB91;" points="282.844,298.799 243.386,327.225 205.141,299.68 177.821,329.201 282.844,442.68  "/>
	<polygon style="fill:#A78966;" points="360.554,299.68 322.316,327.225 282.844,298.799 282.844,442.68 282.844,469.835    495,469.835 495,444.943  "/>
	<polygon style="fill:#D1E7F8;" points="282.844,298.799 282.844,215.72 205.141,299.68 243.386,327.225  "/>
	<polygon style="fill:#B3D8F4;" points="282.844,298.799 322.316,327.225 360.554,299.68 282.844,215.72  "/>
	<polygon style="fill:#6A563D;" points="282.844,442.68 177.821,329.201 141.422,289.871 141.422,469.835 282.844,469.835  "/>
	<polygon style="fill:#957856;" points="141.422,289.871 0,442.681 0,469.835 141.422,469.835  "/>
</g>
<g>
</g>
<g>
</g>
<g>
</g>
<g>
</g>
<g>
</g>
<g>
</g>
<g>
</g>
<g>
</g>
<g>
</g>
<g>
</g>
<g>
</g>
<g>
</g>
<g>
</g>
<g>
</g>
<g>
</g>
</svg>